Coordinates
version=1
nRows=13
nColumns=36
inDegrees=yes

Units are S.I. units (second, meters, Newtons, ...)
If the header above contains a line with 'inDegrees', this indicates whether rotational values are in degrees (yes) or radians (no).

endheader
time	pelvis_tilt	pelvis_list	pelvis_rotation	pelvis_tx	pelvis_ty	pelvis_tz	hip_flexion_r	hip_adduction_r	hip_rotation_r	knee_angle_r	knee_angle_r_beta	ankle_angle_r	subtalar_angle_r	mtp_angle_r	hip_flexion_l	hip_adduction_l	hip_rotation_l	knee_angle_l	knee_angle_l_beta	ankle_angle_l	subtalar_angle_l	mtp_angle_l	lumbar_extension	lumbar_bending	lumbar_rotation	arm_flex_r	arm_add_r	arm_rot_r	elbow_flex_r	pro_sup_r	arm_flex_l	arm_add_l	arm_rot_l	elbow_flex_l	pro_sup_l
      1.57000000	    -25.33964276	     -2.21053365	     -4.15364073	     -0.36666568	      0.66381261	     -0.61967888	     80.34774384	     -4.84656370	     -0.65965812	     78.33725300	      1.36724299	     32.39101869	     -0.39868081	     -7.42702503	     82.50996008	    -16.32818469	      3.37240578	     80.27403688	      1.40104625	     31.41766442	      6.82343060	     -7.42702503	    -19.04461980	      4.27889008	      1.65975803	    -19.63063095	    -14.53657669	    -13.75198225	     25.13289023	     95.63891513	    -15.97127471	    -13.40775783	    -22.44375557	     25.13894138	    103.42445419
      1.58000000	    -25.14276835	     -2.01055359	     -3.66316357	     -0.36220142	      0.65561703	     -0.62067699	     81.23564529	     -5.19924478	      0.06167287	     81.52642393	      1.42290452	     34.35247787	      0.42969372	     -7.42915813	     82.95092475	    -15.83645808	      3.71703482	     82.72096748	      1.44375324	     33.35422917	      7.77214993	     -7.42915813	    -19.61713097	      4.08651779	      1.57423012	    -16.09851040	    -13.77568094	    -13.86508661	     23.59173661	     95.58509678	    -12.22436835	    -12.76507626	    -21.60426574	     23.22497345	    103.76825778
      1.59000000	    -24.82090886	     -1.73311736	     -3.08212763	     -0.35918335	      0.64838568	     -0.62111653	     81.84488476	     -5.47176772	      1.04177810	     84.32084704	      1.47167641	     35.69256696	      0.53739752	     -7.43169377	     83.04141058	    -15.13997792	      4.04413161	     84.77862583	      1.47966616	     34.92341325	      8.09423082	     -7.43169377	    -20.41047018	      3.86046148	      1.20035328	    -11.71700158	    -13.33965420	    -13.96969505	     21.59687196	     95.42348411	     -7.89712486	    -12.37368706	    -20.39963820	     20.24492517	    104.05552212
      1.60000000	    -24.78864204	     -1.57349157	     -2.59641626	     -0.35411343	      0.64069550	     -0.62162666	     82.59575841	     -5.46345337	      2.03028516	     86.79441078	      1.51484824	     36.57880017	      0.18156664	     -7.44393321	     83.38313614	    -14.46105927	      4.60021111	     86.66484038	      1.51258681	     36.14352487	      7.99446994	     -7.44393321	    -20.75132036	      3.84330330	      1.72897152	     -7.89500169	    -13.31789468	    -12.40588909	     19.62025726	     94.29465928	     -2.88003390	    -12.51553356	    -14.06569433	     16.36533217	    103.45126122
      1.61000000	    -24.25447916	     -1.25998262	     -2.07323871	     -0.34540846	      0.63493283	     -0.62238550	     82.66147724	     -5.53794929	      3.15317614	     89.03456570	      1.55394632	     37.41087267	     -0.09377927	     -7.44550651	     82.93651143	    -13.66283644	      4.92851748	     88.32262513	      1.54152061	     37.31940276	      8.03098777	     -7.44550651	    -22.02783086	      3.64072635	      1.22036364	     -4.09867420	    -12.95101310	    -12.73061363	     19.86155363	     93.93835318	      0.33740327	    -11.90446233	    -13.81907544	     16.13576479	    103.00330208
      1.62000000	    -23.82559470	     -1.01133922	     -1.61774924	     -0.33671155	      0.63135691	     -0.62204689	     82.61423354	     -5.49200637	      4.17078762	     90.91651116	      1.58679246	     37.81845742	     -0.83960536	     -7.44665172	     82.50694378	    -12.91046558	      5.32818646	     89.78650333	      1.56707011	     38.25543792	      7.83912313	     -7.44665172	    -23.13461247	      3.53794615	      0.96485800	     -0.58203281	    -12.69237673	    -12.90112578	     20.13688991	     93.67977970	      3.47877160	    -11.44448324	    -13.53951684	     16.23635295	    102.63360954
      1.63000000	    -23.27322372	     -0.72087166	     -1.32378175	     -0.33234114	      0.62971818	     -0.62047620	     82.36193207	     -5.27629509	      5.18291283	     92.43732810	      1.61333573	     37.90777653	     -1.71564552	     -7.44784182	     81.93214306	    -12.33854143	      5.63035036	     91.05889643	      1.58927756	     38.89971061	      7.46867236	     -7.44784182	    -24.54926515	      3.32167531	      0.74452419	      3.12789715	    -12.36745298	    -12.95346099	     20.62909649	     93.43928314	      6.79268700	    -11.19307887	    -13.19005851	     16.46480017	    102.20811712
      1.64000000	    -22.82778291	     -0.43180261	     -1.11948312	     -0.33251475	      0.62764433	     -0.61935752	     82.29075224	     -5.03250819	      6.09856913	     93.73547237	      1.63599262	     37.86026198	     -2.63809851	     -7.44892566	     81.66726183	    -11.85369752	      5.91724658	     92.27029847	      1.61042051	     39.37665134	      6.98989741	     -7.44892566	    -25.95959805	      3.06690238	      0.63588333	      6.90746329	    -12.12159420	    -12.82166456	     21.55154856	     93.28227570	     10.32844010	    -11.12983573	    -12.76953398	     17.06402225	    101.80595074
      1.65000000	    -22.54510908	     -0.17310388	     -1.02120571	     -0.33452434	      0.62563113	     -0.61892864	     82.42375093	     -4.73715181	      6.91671118	     94.80751020	      1.65470321	     37.80159453	     -3.44757584	     -7.44982926	     81.73588736	    -11.46852851	      6.18324460	     93.42137992	      1.63051067	     39.72450292	      6.46853118	     -7.44982926	    -27.09257282	      2.81413806	      0.54890213	     10.76445481	    -12.01604264	    -12.57522698	     22.86375741	     93.21628781	     14.11546918	    -11.23330915	    -12.27294412	     18.08017296	    101.49263452
      1.66000000	    -22.88026218	     -0.06119154	     -0.99409031	     -0.33600492	      0.62457728	     -0.61821262	     83.21367389	     -4.39539062	      7.50629661	     95.75849517	      1.67130103	     37.95450407	     -3.82038315	     -7.44999966	     82.54297075	    -11.14824538	      6.56544260	     94.43398568	      1.64818398	     40.09892033	      6.12388144	     -7.44999966	    -27.28540740	      2.78796966	      0.70382427	     14.78661411	    -11.91946989	    -12.42815813	     24.20613821	     93.22092988	     18.05676691	    -11.35047972	    -12.10166966	     19.33966781	    101.43438681
      1.67000000	    -21.92059016	      0.18032387	     -1.16478148	     -0.33656297	      0.62881231	     -0.61625835	     82.42678705	     -3.80006249	      8.22329113	     96.25259001	      1.67992461	     37.40667599	     -5.22743610	     -7.45092537	     81.68355237	    -11.01499934	      6.60449040	     95.02437710	      1.65848825	     40.22679740	      5.02282858	     -7.45092537	    -29.09427160	      2.44923398	      0.80436668	     19.70165794	    -11.88767338	    -11.80378015	     26.18293922	     93.34924820	     23.04595114	    -12.00202701	    -11.07972851	     21.10411613	    101.25048625
      1.68000000	    -21.76815217	      0.20906356	     -1.36575402	     -0.33592959	      0.63118416	     -0.61490963	     82.42363940	     -3.25493530	      8.56961329	     96.62897782	      1.68649382	     37.36256960	     -5.82478795	     -7.45700762	     81.76373158	    -11.04056056	      6.74789672	     95.55898928	      1.66781899	     40.48991479	      4.49398538	     -7.45700762	    -29.18452350	      2.30565860	      1.23351155	     24.54250839	    -12.32445736	     -9.50737840	     27.93018966	     94.14422291	     28.48274313	    -13.27987355	     -5.18068203	     22.48143151	     99.79895250
      1.69000000	    -21.76978614	      0.18572040	     -1.64778443	     -0.33408879	      0.63223418	     -0.61496721	     82.45110095	     -2.70823160	      8.75561916	     96.77940363	      1.68911924	     37.25597635	     -6.56146164	     -7.45782184	     81.87858683	    -11.20005473	      6.75424828	     95.90814468	      1.67391290	     40.62390055	      3.67818604	     -7.45782184	    -28.39997020	      2.23111898	      1.40574160	     29.66339253	    -12.19375942	     -9.32124384	     29.95907305	     94.20781357	     33.85512991	    -14.15132894	     -4.85788216	     24.53935647	     99.46489885
